<mxfile host="www.draw.io" modified="2023-05-02T02:39:04.864Z" agent="Mozilla/5.0 (Windows NT 10.0; Win64; x64) AppleWebKit/537.36 (KHTML, like Gecko) Chrome/112.0.0.0 Safari/537.36 Edg/112.0.1722.64" etag="zwTyVr3vuKuwwHE-8vLm" version="21.2.3" type="device">
  <diagram name="Page-1" id="mhGADwCteU3E92uff4uI">
    <mxGraphModel dx="1050" dy="573" grid="1" gridSize="10" guides="1" tooltips="1" connect="1" arrows="1" fold="1" page="1" pageScale="1" pageWidth="1500" pageHeight="1100" math="0" shadow="0">
      <root>
        <mxCell id="0" />
        <mxCell id="1" parent="0" />
        <mxCell id="WOvSbhSZg88fOx79aL7q-9" value="Leap Year ?" style="rounded=0;whiteSpace=wrap;html=1;" vertex="1" parent="1">
          <mxGeometry x="360" y="40" width="120" height="60" as="geometry" />
        </mxCell>
        <mxCell id="WOvSbhSZg88fOx79aL7q-13" style="edgeStyle=orthogonalEdgeStyle;rounded=0;orthogonalLoop=1;jettySize=auto;html=1;entryX=0.5;entryY=0;entryDx=0;entryDy=0;" edge="1" parent="1" source="WOvSbhSZg88fOx79aL7q-10" target="WOvSbhSZg88fOx79aL7q-12">
          <mxGeometry relative="1" as="geometry" />
        </mxCell>
        <mxCell id="WOvSbhSZg88fOx79aL7q-15" style="edgeStyle=orthogonalEdgeStyle;rounded=0;orthogonalLoop=1;jettySize=auto;html=1;entryX=0.5;entryY=0;entryDx=0;entryDy=0;" edge="1" parent="1" source="WOvSbhSZg88fOx79aL7q-10" target="WOvSbhSZg88fOx79aL7q-14">
          <mxGeometry relative="1" as="geometry" />
        </mxCell>
        <mxCell id="WOvSbhSZg88fOx79aL7q-10" value="Year/4" style="rhombus;whiteSpace=wrap;html=1;" vertex="1" parent="1">
          <mxGeometry x="380" y="170" width="80" height="80" as="geometry" />
        </mxCell>
        <mxCell id="WOvSbhSZg88fOx79aL7q-11" value="" style="endArrow=classic;html=1;rounded=0;entryX=0.5;entryY=0;entryDx=0;entryDy=0;exitX=0.5;exitY=1;exitDx=0;exitDy=0;" edge="1" parent="1" source="WOvSbhSZg88fOx79aL7q-9" target="WOvSbhSZg88fOx79aL7q-10">
          <mxGeometry width="50" height="50" relative="1" as="geometry">
            <mxPoint x="400" y="140" as="sourcePoint" />
            <mxPoint x="450" y="140" as="targetPoint" />
          </mxGeometry>
        </mxCell>
        <mxCell id="WOvSbhSZg88fOx79aL7q-12" value="Not a Leap Year" style="rounded=0;whiteSpace=wrap;html=1;" vertex="1" parent="1">
          <mxGeometry x="200" y="240" width="80" height="40" as="geometry" />
        </mxCell>
        <mxCell id="WOvSbhSZg88fOx79aL7q-17" style="edgeStyle=orthogonalEdgeStyle;rounded=0;orthogonalLoop=1;jettySize=auto;html=1;entryX=0.5;entryY=0;entryDx=0;entryDy=0;" edge="1" parent="1" source="WOvSbhSZg88fOx79aL7q-14" target="WOvSbhSZg88fOx79aL7q-16">
          <mxGeometry relative="1" as="geometry" />
        </mxCell>
        <mxCell id="WOvSbhSZg88fOx79aL7q-19" style="edgeStyle=orthogonalEdgeStyle;rounded=0;orthogonalLoop=1;jettySize=auto;html=1;entryX=0.5;entryY=0;entryDx=0;entryDy=0;" edge="1" parent="1" source="WOvSbhSZg88fOx79aL7q-14" target="WOvSbhSZg88fOx79aL7q-18">
          <mxGeometry relative="1" as="geometry" />
        </mxCell>
        <mxCell id="WOvSbhSZg88fOx79aL7q-14" value="Year/100" style="rhombus;whiteSpace=wrap;html=1;" vertex="1" parent="1">
          <mxGeometry x="600" y="240" width="80" height="80" as="geometry" />
        </mxCell>
        <mxCell id="WOvSbhSZg88fOx79aL7q-16" value="Leap Year" style="rounded=0;whiteSpace=wrap;html=1;" vertex="1" parent="1">
          <mxGeometry x="440" y="320" width="80" height="40" as="geometry" />
        </mxCell>
        <mxCell id="WOvSbhSZg88fOx79aL7q-21" style="edgeStyle=orthogonalEdgeStyle;rounded=0;orthogonalLoop=1;jettySize=auto;html=1;entryX=0.5;entryY=0;entryDx=0;entryDy=0;" edge="1" parent="1" source="WOvSbhSZg88fOx79aL7q-18" target="WOvSbhSZg88fOx79aL7q-20">
          <mxGeometry relative="1" as="geometry" />
        </mxCell>
        <mxCell id="WOvSbhSZg88fOx79aL7q-23" style="edgeStyle=orthogonalEdgeStyle;rounded=0;orthogonalLoop=1;jettySize=auto;html=1;entryX=0.5;entryY=0;entryDx=0;entryDy=0;" edge="1" parent="1" source="WOvSbhSZg88fOx79aL7q-18" target="WOvSbhSZg88fOx79aL7q-22">
          <mxGeometry relative="1" as="geometry" />
        </mxCell>
        <mxCell id="WOvSbhSZg88fOx79aL7q-18" value="Year/400" style="rhombus;whiteSpace=wrap;html=1;" vertex="1" parent="1">
          <mxGeometry x="760" y="320" width="80" height="80" as="geometry" />
        </mxCell>
        <mxCell id="WOvSbhSZg88fOx79aL7q-20" value="Not a Leap Year" style="rounded=0;whiteSpace=wrap;html=1;" vertex="1" parent="1">
          <mxGeometry x="640" y="400" width="80" height="40" as="geometry" />
        </mxCell>
        <mxCell id="WOvSbhSZg88fOx79aL7q-22" value="Leap Year" style="rounded=0;whiteSpace=wrap;html=1;" vertex="1" parent="1">
          <mxGeometry x="880" y="400" width="80" height="40" as="geometry" />
        </mxCell>
      </root>
    </mxGraphModel>
  </diagram>
</mxfile>
